<svg xmlns="http://www.w3.org/2000/svg" width="512" height="512" viewBox="0 0 512 512" style="overflow: visible;"><rect data-uid="o_f4bkg3bhj_24" data-fl-background="" x="0" y="0" width="512" height="512" fill="#302f4e"></rect><defs transform="matrix(0.8125, 0, 0, 0.8125, 48, 48)" data-uid="o_f4bkg3bhj_25"><linearGradient id="o_f4bkg3bhj_3" x1="32" y1="37.33" x2="32" y2="-24.68" gradientUnits="userSpaceOnUse" data-uid="o_f4bkg3bhj_26"><stop offset="0" stop-color="rgb(250, 217, 148)" data-uid="o_f4bkg3bhj_27"></stop><stop offset="0.35" stop-color="rgb(238, 137, 104)" data-uid="o_f4bkg3bhj_28"></stop><stop offset="0.66" stop-color="rgb(198, 70, 79)" data-uid="o_f4bkg3bhj_29"></stop><stop offset="1" stop-color="rgb(48, 47, 78)" data-uid="o_f4bkg3bhj_30"></stop></linearGradient><linearGradient id="o_f4bkg3bhj_4" x1="31.76" y1="32.75" x2="31.76" y2="1.19" gradientUnits="userSpaceOnUse" data-uid="o_f4bkg3bhj_31"><stop offset="0" stop-color="rgb(250, 217, 148)" data-uid="o_f4bkg3bhj_32"></stop><stop offset="0.31" stop-color="rgb(238, 137, 104)" data-uid="o_f4bkg3bhj_33"></stop><stop offset="0.59" stop-color="rgb(198, 70, 79)" data-uid="o_f4bkg3bhj_34"></stop><stop offset="0.7" stop-color="rgb(48, 47, 78)" data-uid="o_f4bkg3bhj_35"></stop><stop offset="0.73" stop-color="rgb(48, 47, 78)" data-uid="o_f4bkg3bhj_36"></stop></linearGradient><linearGradient id="o_f4bkg3bhj_5" x1="31.25" y1="30.5" x2="31.25" y2="-2.03" gradientUnits="userSpaceOnUse" data-uid="o_f4bkg3bhj_37"><stop offset="0" stop-color="rgb(250, 217, 148)" data-uid="o_f4bkg3bhj_38"></stop><stop offset="0.28" stop-color="rgb(238, 137, 104)" data-uid="o_f4bkg3bhj_39"></stop><stop offset="0.51" stop-color="rgb(198, 70, 79)" data-uid="o_f4bkg3bhj_40"></stop><stop offset="0.85" stop-color="rgb(48, 47, 78)" data-uid="o_f4bkg3bhj_41"></stop></linearGradient><linearGradient id="o_f4bkg3bhj_6" x1="31.68" y1="24" x2="31.68" y2="-5.44" gradientUnits="userSpaceOnUse" data-uid="o_f4bkg3bhj_42"><stop offset="0" stop-color="rgb(250, 217, 148)" data-uid="o_f4bkg3bhj_43"></stop><stop offset="0.2" stop-color="rgb(238, 137, 104)" data-uid="o_f4bkg3bhj_44"></stop><stop offset="0.39" stop-color="rgb(198, 70, 79)" data-uid="o_f4bkg3bhj_45"></stop><stop offset="0.7" stop-color="rgb(48, 47, 78)" data-uid="o_f4bkg3bhj_46"></stop></linearGradient><linearGradient id="o_f4bkg3bhj_7" x1="32" y1="30.33" x2="32" y2="7.06" gradientUnits="userSpaceOnUse" data-uid="o_f4bkg3bhj_47"><stop offset="0" stop-color="rgb(250, 217, 148)" data-uid="o_f4bkg3bhj_48"></stop><stop offset="0.28" stop-color="rgb(238, 137, 104)" data-uid="o_f4bkg3bhj_49"></stop><stop offset="0.58" stop-color="rgb(198, 70, 79)" data-uid="o_f4bkg3bhj_50"></stop><stop offset="1" stop-color="rgb(48, 47, 78)" data-uid="o_f4bkg3bhj_51"></stop></linearGradient><linearGradient id="o_f4bkg3bhj_8" x1="32.03" y1="31.33" x2="32.03" y2="-1.72" gradientUnits="userSpaceOnUse" data-uid="o_f4bkg3bhj_52"><stop offset="0" stop-color="rgb(250, 217, 148)" data-uid="o_f4bkg3bhj_53"></stop><stop offset="0.16" stop-color="rgb(238, 137, 104)" data-uid="o_f4bkg3bhj_54"></stop><stop offset="0.42" stop-color="rgb(198, 70, 79)" data-uid="o_f4bkg3bhj_55"></stop><stop offset="0.9" stop-color="rgb(48, 47, 78)" data-uid="o_f4bkg3bhj_56"></stop></linearGradient><linearGradient id="o_f4bkg3bhj_9" x1="32" y1="92.58" x2="32" y2="27.31" gradientUnits="userSpaceOnUse" data-uid="o_f4bkg3bhj_57"><stop offset="0" stop-color="rgb(250, 217, 148)" data-uid="o_f4bkg3bhj_58"></stop><stop offset="0.35" stop-color="rgb(238, 137, 104)" data-uid="o_f4bkg3bhj_59"></stop><stop offset="0.62" stop-color="rgb(198, 70, 79)" data-uid="o_f4bkg3bhj_60"></stop><stop offset="0.96" stop-color="rgb(48, 47, 78)" data-uid="o_f4bkg3bhj_61"></stop></linearGradient><linearGradient id="o_f4bkg3bhj_10" x1="32" y1="44.3" x2="32" y2="19.71" gradientUnits="userSpaceOnUse" data-uid="o_f4bkg3bhj_62"><stop offset="0.16" stop-color="rgb(250, 217, 148)" data-uid="o_f4bkg3bhj_63"></stop><stop offset="0.34" stop-color="rgb(238, 137, 104)" data-uid="o_f4bkg3bhj_64"></stop><stop offset="0.66" stop-color="rgb(198, 70, 79)" data-uid="o_f4bkg3bhj_65"></stop><stop offset="1" stop-color="rgb(48, 47, 78)" data-uid="o_f4bkg3bhj_66"></stop></linearGradient><linearGradient id="o_f4bkg3bhj_11" x1="32" y1="66.83" x2="32" y2="41.59" gradientUnits="userSpaceOnUse" data-uid="o_f4bkg3bhj_67"><stop offset="0" stop-color="rgb(250, 217, 148)" data-uid="o_f4bkg3bhj_68"></stop><stop offset="0.13" stop-color="rgb(238, 137, 104)" data-uid="o_f4bkg3bhj_69"></stop><stop offset="0.41" stop-color="rgb(198, 70, 79)" data-uid="o_f4bkg3bhj_70"></stop><stop offset="1" stop-color="rgb(48, 47, 78)" data-uid="o_f4bkg3bhj_71"></stop></linearGradient><linearGradient id="o_f4bkg3bhj_12" x1="32" y1="35.33" x2="32" y2="-14.79" gradientUnits="userSpaceOnUse" data-uid="o_f4bkg3bhj_72"><stop offset="0.16" stop-color="rgb(250, 217, 148)" data-uid="o_f4bkg3bhj_73"></stop><stop offset="0.4" stop-color="rgb(238, 137, 104)" data-uid="o_f4bkg3bhj_74"></stop><stop offset="0.66" stop-color="rgb(198, 70, 79)" data-uid="o_f4bkg3bhj_75"></stop><stop offset="1" stop-color="rgb(48, 47, 78)" data-uid="o_f4bkg3bhj_76"></stop></linearGradient><linearGradient id="o_f4bkg3bhj_13" x1="32" y1="28.21" x2="32" y2="-2.08" href="#o_f4bkg3bhj_21" data-uid="o_f4bkg3bhj_77"></linearGradient><linearGradient id="o_f4bkg3bhj_14" x1="24.22" y1="29.39" x2="23.63" y2="39.96" gradientUnits="userSpaceOnUse" data-uid="o_f4bkg3bhj_78"><stop offset="0" stop-color="rgb(250, 217, 148)" data-uid="o_f4bkg3bhj_79"></stop><stop offset="0.33" stop-color="rgb(238, 137, 104)" data-uid="o_f4bkg3bhj_80"></stop><stop offset="0.67" stop-color="rgb(198, 70, 79)" data-uid="o_f4bkg3bhj_81"></stop><stop offset="1" stop-color="rgb(48, 47, 78)" data-uid="o_f4bkg3bhj_82"></stop></linearGradient><linearGradient id="o_f4bkg3bhj_15" x1="41.27" y1="26.92" x2="40.69" y2="37.5" href="#o_f4bkg3bhj_22" data-uid="o_f4bkg3bhj_83"></linearGradient><linearGradient id="o_f4bkg3bhj_16" x1="16.16" y1="26.71" x2="15.48" y2="38.97" href="#o_f4bkg3bhj_22" data-uid="o_f4bkg3bhj_84"></linearGradient><linearGradient id="o_f4bkg3bhj_17" x1="50.29" y1="26.26" x2="49.62" y2="38.52" href="#o_f4bkg3bhj_22" data-uid="o_f4bkg3bhj_85"></linearGradient><linearGradient id="o_f4bkg3bhj_18" x1="21.57" y1="21.7" x2="21.23" y2="27.83" href="#o_f4bkg3bhj_22" data-uid="o_f4bkg3bhj_86"></linearGradient><linearGradient id="o_f4bkg3bhj_19" x1="43.33" y1="20.19" x2="43" y2="26.32" href="#o_f4bkg3bhj_22" data-uid="o_f4bkg3bhj_87"></linearGradient><linearGradient id="o_f4bkg3bhj_20" x1="45.85" y1="27.79" x2="45.51" y2="33.92" href="#o_f4bkg3bhj_22" data-uid="o_f4bkg3bhj_88"></linearGradient></defs><path transform="matrix(1.850326880812645, 0, 0, 1.850326880812645, 163.4836540222168, 91.37652611732483)" data-type="circle" data-cx="50" data-cy="50" data-r="50" d="M50 50m-50 0a50 50 0 1 0 100 0a50 50 0 1 0 -100 0" fill="rgba(238,137,104,1)" data-uid="o_f4bkg3bhj_89"></path><path transform="matrix(1.7929972857236862, 0, 0, 1.7929972857236862, 166.35014152526855, 94.24300742149353)" fill="rgba(48,47,78,1)" data-type="circle" data-cx="50" data-cy="50" data-r="50" d="M50 50m-50 0a50 50 0 1 0 100 0a50 50 0 1 0 -100 0" data-uid="o_f4bkg3bhj_90"></path><g transform="matrix(3.1437652856111526, 0, 0, 3.1437652856111526, 155.39950466156006, 83.29240775108337)" data-uid="o_f4bkg3bhj_91"><path class="cls-1" fill="url(#o_f4bkg3bhj_3)" transform="matrix(1, 0, 0, 1, 0, 0)" data-type="circle" data-cx="32" data-cy="32" data-r="27.4" d="M32 32m-27.4 0a27.4 27.4 0 1 0 54.8 0a27.4 27.4 0 1 0 -54.8 0" data-uid="o_f4bkg3bhj_92"></path><path class="cls-2" d="M55.79 18.42l-3.09 1.44a5.93 5.93 0 0 1-5.11.08 4.88 4.88 0 0 0-4.23-.06L39 21.9a6.66 6.66 0 0 1-5.62 0 4.1 4.1 0 0 0-3.45 0l-1.58.74a7.61 7.61 0 0 1-6.42 0l-4.34-2a4 4 0 0 0-3.35 0l-3.47 1.61a2.89 2.89 0 0 1-2.44 0l-1.63-.78a27.24 27.24 0 0 0-2 8.4l3.65 1.7a2.89 2.89 0 0 0 2.44 0L14.25 30a4 4 0 0 1 3.35 0l4.34 2a7.61 7.61 0 0 0 6.42 0l1.58-.74a4.1 4.1 0 0 1 3.45 0l1.94.9a2.06 2.06 0 0 0 1.74 0l6.27-2.91a4.7 4.7 0 0 1 4-.06 6.17 6.17 0 0 0 5.31.05l4-1.85a21.73 21.73 0 0 1 2.2-.88 27.2 27.2 0 0 0-3.06-8.09z" fill="url(#o_f4bkg3bhj_4)" transform="matrix(1, 0, 0, 1, 0, 0)" data-uid="o_f4bkg3bhj_93"></path><path class="cls-3" d="M55.84 18.5a27.51 27.51 0 0 0-6-7.3 6.15 6.15 0 0 1-2.41-.59 5 5 0 0 0-4.21.09l-4.2 2a6.66 6.66 0 0 1-5.62 0 4.1 4.1 0 0 0-3.45 0l-1.58.73a7.61 7.61 0 0 1-6.42 0l-4.34-2a4 4 0 0 0-3.35 0l-.61.28a27.45 27.45 0 0 0-7 9.89l1.67.78a2.89 2.89 0 0 0 2.44 0l3.47-1.61a4 4 0 0 1 3.35 0l4.34 2a7.61 7.61 0 0 0 6.42 0l1.59-.77a4.1 4.1 0 0 1 3.45 0A6.66 6.66 0 0 0 39 22l4.33-2a4.7 4.7 0 0 1 4-.06 6.17 6.17 0 0 0 5.31.05z" fill="url(#o_f4bkg3bhj_5)" transform="matrix(1, 0, 0, 1, 0, 0)" data-uid="o_f4bkg3bhj_94"></path><path class="cls-4" d="M32 4.6a27.3 27.3 0 0 0-18.57 7.26l.82-.38a4 4 0 0 1 3.35 0l4.34 2a7.61 7.61 0 0 0 6.42 0l1.58-.74a4.1 4.1 0 0 1 3.45 0 6.66 6.66 0 0 0 5.62 0l4.35-2a4.86 4.86 0 0 1 4.1 0 6.16 6.16 0 0 0 2.49.57A27.28 27.28 0 0 0 32 4.6z" fill="url(#o_f4bkg3bhj_6)" transform="matrix(1, 0, 0, 1, 0, 0)" data-uid="o_f4bkg3bhj_95"></path><path class="cls-5" d="M32 4.6a27.27 27.27 0 0 0-16.25 5.34 16.71 16.71 0 0 0 32.49 0A27.27 27.27 0 0 0 32 4.6z" fill="url(#o_f4bkg3bhj_7)" transform="matrix(1, 0, 0, 1, 0, 0)" data-uid="o_f4bkg3bhj_96"></path><path class="cls-6" d="M48 10.85a5.94 5.94 0 0 1-.57-.24 5 5 0 0 0-4.21.09l-4.2 2a6.66 6.66 0 0 1-5.62 0 4.1 4.1 0 0 0-3.45 0l-1.58.73a7.61 7.61 0 0 1-6.42 0l-4.34-2a4 4 0 0 0-1.54-.43 16.73 16.73 0 0 0 12.87 11.46l1-.46a4.1 4.1 0 0 1 3.45 0 6.65 6.65 0 0 0 1.54.49A16.73 16.73 0 0 0 48 10.85z" fill="url(#o_f4bkg3bhj_8)" transform="matrix(1, 0, 0, 1, 0, 0)" data-uid="o_f4bkg3bhj_97"></path><path class="cls-7" d="M5.56 39.17a27.4 27.4 0 0 0 52.89 0z" fill="url(#o_f4bkg3bhj_9)" transform="matrix(1, 0, 0, 1, 0, 0)" data-uid="o_f4bkg3bhj_98"></path><path class="cls-8" d="M48.29 35.18l-.67-.11a4.86 4.86 0 0 1-1.33-.42l-3.82-1.85a8.76 8.76 0 0 0-4.63-.8l-4.7.44q-.85.08-1.71.08h-7.55a7.8 7.8 0 0 0-3 .61l-2.53 1.07a4.1 4.1 0 0 1-.6.2l-2.56.6a1.5 1.5 0 0 0-.91.67l-2.15 3.48h39.74l-1.23-2.29a3.27 3.27 0 0 0-2.35-1.68z" fill="url(#o_f4bkg3bhj_10)" transform="matrix(1, 0, 0, 1, 0, 0)" data-uid="o_f4bkg3bhj_99"></path><path class="cls-9" d="M32 59.4a25.61 25.61 0 0 0 6.12-.75l-5.65-5.05h-.94l-5.65 5.06a25.61 25.61 0 0 0 6.12.74z" fill="url(#o_f4bkg3bhj_11)" transform="matrix(1, 0, 0, 1, 0, 0)" data-uid="o_f4bkg3bhj_100"></path><path class="cls-11" fill="url(#o_f4bkg3bhj_12)" transform="matrix(1, 0, 0, 1, 0, 0)" data-type="circle" data-cx="32" data-cy="22.11" data-r="4.78" d="M32 22.11m-4.78 0a4.78 4.78 0 1 0 9.56 0a4.78 4.78 0 1 0 -9.56 0" data-uid="o_f4bkg3bhj_101"></path><path class="cls-12" d="M32 17.33a4.77 4.77 0 0 0-4.67 5.78 7.58 7.58 0 0 0 1-.38l1.6-.73a4.1 4.1 0 0 1 3.45 0 6.66 6.66 0 0 0 3.35.59 4.69 4.69 0 0 0 0-.47A4.78 4.78 0 0 0 32 17.33z" fill="url(#o_f4bkg3bhj_13)" transform="matrix(1, 0, 0, 1, 0, 0)" data-uid="o_f4bkg3bhj_102"></path><path class="cls-13" d="M24.69 27.75a.4.4 0 0 0-.3.48.4.4 0 0 0-.48-.3.4.4 0 0 0 .3-.48.4.4 0 0 0 .48.3z" fill="url(#o_f4bkg3bhj_14)" transform="matrix(1, 0, 0, 1, 0, 0)" data-uid="o_f4bkg3bhj_103"></path><path class="cls-14" d="M41.75 25.29a.4.4 0 0 0-.3.48.4.4 0 0 0-.48-.3.4.4 0 0 0 .3-.48.4.4 0 0 0 .48.3z" fill="url(#o_f4bkg3bhj_15)" transform="matrix(1, 0, 0, 1, 0, 0)" data-uid="o_f4bkg3bhj_104"></path><path class="cls-15" d="M16.71 24.82a.46.46 0 0 0-.35.56.46.46 0 0 0-.56-.38.46.46 0 0 0 .35-.56.46.46 0 0 0 .56.38z" fill="url(#o_f4bkg3bhj_16)" transform="matrix(1, 0, 0, 1, 0, 0)" data-uid="o_f4bkg3bhj_105"></path><path class="cls-16" d="M50.85 24.37a.46.46 0 0 0-.35.56.46.46 0 0 0-.56-.35.46.46 0 0 0 .35-.56.46.46 0 0 0 .56.35z" fill="url(#o_f4bkg3bhj_17)" transform="matrix(1, 0, 0, 1, 0, 0)" data-uid="o_f4bkg3bhj_106"></path><path class="cls-17" d="M21.84 20.76a.23.23 0 0 0-.17.28.23.23 0 0 0-.28-.17.23.23 0 0 0 .17-.28.23.23 0 0 0 .28.17z" fill="url(#o_f4bkg3bhj_18)" transform="matrix(1, 0, 0, 1, 0, 0)" data-uid="o_f4bkg3bhj_107"></path><path class="cls-18" d="M43.61 19.25a.23.23 0 0 0-.17.28.23.23 0 0 0-.28-.17.23.23 0 0 0 .17-.28.23.23 0 0 0 .28.17z" fill="url(#o_f4bkg3bhj_19)" transform="matrix(1, 0, 0, 1, 0, 0)" data-uid="o_f4bkg3bhj_108"></path><path class="cls-19" d="M46.13 26.84a.23.23 0 0 1-.45.1.23.23 0 1 1 .45-.1z" fill="url(#o_f4bkg3bhj_20)" transform="matrix(1, 0, 0, 1, 0, 0)" data-uid="o_f4bkg3bhj_109"></path></g><path text="vomon" fill="#ee8968" space="preserve" text-anchor="middle" offset="0.5" font-scale="contain" font-size="48" font-family="Orbitron" transform="matrix(1.2480322644114494, 0, 0, 1.2480322644114494, 255.69920539855957, 340.50106620788574)" data-fl-textpath="" font-weight="400" font-style="normal" data-uid="o_f4bkg3bhj_110" d="M-72.62599999999999-3.84L-59.56599999999999-27.84L-54.95599999999999-27.84L-70.36599999999999 0L-74.92599999999999 0L-90.28599999999999-27.84L-85.67599999999999-27.84L-72.62599999999999-3.84ZM-46.508-27.84L-46.508-27.84L-29.808-27.84Q-27.358-27.84 -25.658-26.14Q-23.948-24.43 -23.948-22.03L-23.948-22.03L-23.948-5.81Q-23.948-3.41 -25.658-1.7Q-27.358 0 -29.808 0L-29.808 0L-46.508 0Q-48.908 0 -50.618-1.7Q-52.318-3.41 -52.318-5.81L-52.318-5.81L-52.318-22.03Q-52.318-24.43 -50.618-26.14Q-48.908-27.84 -46.508-27.84ZM-29.808-23.9L-29.808-23.9L-46.508-23.9Q-47.278-23.9 -47.828-23.35Q-48.388-22.8 -48.388-22.03L-48.388-22.03L-48.388-5.81Q-48.388-5.04 -47.828-4.49Q-47.278-3.94 -46.508-3.94L-46.508-3.94L-29.808-3.94Q-29.038-3.94 -28.488-4.49Q-27.938000000000002-5.04 -27.938000000000002-5.81L-27.938000000000002-5.81L-27.938000000000002-22.03Q-27.938000000000002-22.8 -28.488-23.35Q-29.038-23.9 -29.808-23.9ZM-18.961999999999993-27.84L 17.808000000000007-27.84Q 20.25800000000001-27.84  21.93800000000001-26.14Q 23.61800000000001-24.43  23.61800000000001-22.03L 23.61800000000001-22.03L 23.61800000000001 0L 19.72800000000001 0L 19.72800000000001-22.03Q 19.72800000000001-22.8  19.14800000000001-23.35Q 18.57800000000001-23.9  17.808000000000007-23.9L 17.808000000000007-23.9L 6.238000000000007-23.9Q 5.468000000000007-23.9  4.918000000000006-23.35Q 4.368000000000009-22.8  4.368000000000009-22.03L 4.368000000000009-22.03L 4.368000000000009 0L 0.3880000000000088 0L 0.3880000000000088-22.03Q 0.3880000000000088-22.8 -0.1719999999999935-23.35Q-0.7219999999999942-23.9 -1.4919999999999938-23.9L-1.4919999999999938-23.9L-13.101999999999993-23.9Q-13.871999999999993-23.9 -14.421999999999993-23.35Q-14.971999999999992-22.8 -14.971999999999992-22.03L-14.971999999999992-22.03L-14.971999999999992 0L-18.961999999999993 0L-18.961999999999993-27.84ZM 33.652000000000015-27.84L 33.652000000000015-27.84L 50.35200000000002-27.84Q 52.802000000000014-27.84  54.50200000000001-26.14Q 56.21200000000002-24.43  56.21200000000002-22.03L 56.21200000000002-22.03L 56.21200000000002-5.81Q 56.21200000000002-3.41  54.50200000000001-1.7Q 52.802000000000014 0  50.35200000000002 0L 50.35200000000002 0L 33.652000000000015 0Q 31.252000000000013 0  29.542000000000016-1.7Q 27.842000000000013-3.41  27.842000000000013-5.81L 27.842000000000013-5.81L 27.842000000000013-22.03Q 27.842000000000013-24.43  29.542000000000016-26.14Q 31.252000000000013-27.84  33.652000000000015-27.84ZM 50.35200000000002-23.9L 50.35200000000002-23.9L 33.652000000000015-23.9Q 32.88200000000001-23.9  32.332000000000015-23.35Q 31.772000000000013-22.8  31.772000000000013-22.03L 31.772000000000013-22.03L 31.772000000000013-5.81Q 31.772000000000013-5.04  32.332000000000015-4.49Q 32.88200000000001-3.94  33.652000000000015-3.94L 33.652000000000015-3.94L 50.35200000000002-3.94Q 51.122000000000014-3.94  51.67200000000001-4.49Q 52.22200000000001-5.04  52.22200000000001-5.81L 52.22200000000001-5.81L 52.22200000000001-22.03Q 52.22200000000001-22.8  51.67200000000001-23.35Q 51.122000000000014-23.9  50.35200000000002-23.9ZM 60.47800000000001-27.84L 83.03800000000001-27.84Q 85.43800000000002-27.84  87.14800000000001-26.14Q 88.84800000000001-24.43  88.84800000000001-22.03L 88.84800000000001-22.03L 88.84800000000001 0L 84.90800000000002 0L 84.90800000000002-22.03Q 84.90800000000002-22.8  84.358-23.35Q 83.80800000000002-23.9  83.03800000000001-23.9L 83.03800000000001-23.9L 66.33800000000001-23.9Q 65.56800000000001-23.9  64.98800000000001-23.35Q 64.418-22.8  64.418-22.03L 64.418-22.03L 64.418 0L 60.47800000000001 0L 60.47800000000001-27.84Z"></path></svg>